# xmcd CD database file generated by Grip 3.2.0
# 
# Track frame offsets:
#       150
#       25502
#       46187
#       78342
#       117305
#       145255
#       156672
#       180332
#       204632
#       213027
#       226345
#       238670
# 
# Disc length: 3517 seconds
# 
# Revision: 1
# Processed by: cddbd v1.5.2PL0 Copyright (c) Steve Scherf et al.
# Submitted via: Grip 3.2.0
# 
DISCID=970dbb0c
DTITLE=David Occhipinti - Syzygy
DYEAR=1999
DGENRE=Jazz
TTITLE0=Manhattan
TTITLE1=Syzygy
TTITLE2=Ultimo Tango (Last Tango)
TTITLE3=The March (Part II)
TTITLE4=Trickster
TTITLE5=Sea of Dream
TTITLE6=Summer Solstice
TTITLE7=Id
TTITLE8=Triptych (guitar solo in three movements)
TTITLE9=Tryptych (part 2)
TTITLE10=Tryptych (part 3)
TTITLE11=Nostalgia
EXTD=YEAR: 1998
EXTT0=
EXTT1=
EXTT2=
EXTT3=
EXTT4=
EXTT5=
EXTT6=
EXTT7=
EXTT8=
EXTT9=
EXTT10=
EXTT11=
PLAYORDER=
